<svg id="图层_1" data-name="图层 1" xmlns="http://www.w3.org/2000/svg" viewBox="0 0 1115.95 266.26"><defs><style>.cls-1{fill:#25c2a0;}.cls-2{fill:#9fffc7;}</style></defs><title>Forest-横幅LOGO</title><path class="cls-1" d="M294.8,95.78c-38.32,17.7-78,8.8-123.38,21.21-36.29,9.89-67,34.55-78.89,101h0c20.16-25.61,41.28-43.36,64.23-56.17,22-12.29,45.62-20.12,71.8-26.1A2.25,2.25,0,0,1,229.8,140c-34.14,11.19-63.91,25.22-88.78,43.29a210.69,210.69,0,0,0-62.44,71.06A127.09,127.09,0,0,1,30.75,98.46c.25-.6.5-1.19.76-1.78-.47-3-1-6.07-1.51-9.15-.08-.47-.17-.94-.26-1.4Q27.21,91,25.05,96.05A133.17,133.17,0,0,0,267.61,205.82c-3.25,2.07-6.62,4-10.14,5.91A127,127,0,0,1,85.23,258.41C125.16,196,180,236,235.57,214.2c51.2-20.09,75.15-62.4,81-106.83C317,104.28,318,85.09,294.8,95.78Z" transform="translate(-14.59 -14.74)"/><path class="cls-2" d="M49.74,90.94c5.62,32.26,6.75,60,10.12,76.89,2.35,11.73,10.49,29.42,25.42,40.39,12.56-62.61,42.57-86.27,77.92-95.9a198.07,198.07,0,0,1,22.1-4.63c-.06-.08-.1-.16-.16-.25-16.88-25.5-54.76-79.51-163.91-57.57C21.23,49.87,44.11,58.68,49.74,90.94ZM70.37,56.69a8.6,8.6,0,1,1-8.6,8.6A8.59,8.59,0,0,1,70.37,56.69Z" transform="translate(-14.59 -14.74)"/><path class="cls-1" d="M98.31,30.9A127.06,127.06,0,0,1,264,96.86q3.18-.44,6.33-.94a133.09,133.09,0,0,0-191-62.3c3.41.42,6.73.94,9.94,1.52Q93.7,32.86,98.31,30.9Z" transform="translate(-14.59 -14.74)"/><path class="cls-1" d="M367.83,228.23V67.51a7.77,7.77,0,0,1,7.76-7.76h53.52a11.11,11.11,0,0,1,11.11,11.11h0A11.1,11.1,0,0,1,429.11,82H407.69a7.76,7.76,0,0,0-7.76,7.76v35.71a7.76,7.76,0,0,0,7.76,7.76h13.13a11.32,11.32,0,0,1,11.32,11.32h0a11.32,11.32,0,0,1-11.32,11.32H407.69a7.77,7.77,0,0,0-7.76,7.76v64.63a7.76,7.76,0,0,1-7.76,7.76H375.59A7.77,7.77,0,0,1,367.83,228.23Z" transform="translate(-14.59 -14.74)"/><path class="cls-1" d="M535.53,238.06q-27.21,0-39-14.78T484.72,180V115a98.46,98.46,0,0,1,2.66-24.34,48.1,48.1,0,0,1,8.56-17.85,35.59,35.59,0,0,1,15.78-11.32q9.88-3.78,23.81-3.78,27.11,0,39,14.56T586.34,115V180a97.27,97.27,0,0,1-2.71,24.29A50.36,50.36,0,0,1,575,222.49a36.22,36.22,0,0,1-15.79,11.64Q549.35,238.06,535.53,238.06Zm-8-25.19a21,21,0,0,0,8,1.38,20.57,20.57,0,0,0,8-1.38,14.23,14.23,0,0,0,5.27-3.62,15.75,15.75,0,0,0,3.08-5.84,37.94,37.94,0,0,0,1.49-7.23c.24-2.41.37-5.28.37-8.61v-80a73,73,0,0,0-.64-10.63,27.25,27.25,0,0,0-2.5-8A12.09,12.09,0,0,0,545,83.25a21.11,21.11,0,0,0-9.46-1.86A21.45,21.45,0,0,0,526,83.25a11.74,11.74,0,0,0-5.58,5.63,28.08,28.08,0,0,0-2.45,8,74.58,74.58,0,0,0-.63,10.63v80a85.1,85.1,0,0,0,.37,8.61,37.18,37.18,0,0,0,1.49,7.23,16,16,0,0,0,3,5.84A13.48,13.48,0,0,0,527.51,212.87Z" transform="translate(-14.59 -14.74)"/><path class="cls-2" d="M640.31,228.23V67.51a7.76,7.76,0,0,1,7.76-7.76H680.7A108.78,108.78,0,0,1,704.61,62,47.08,47.08,0,0,1,722,69.69a32.36,32.36,0,0,1,11.06,14.57q3.66,9.19,3.66,22.48,0,16.58-4.94,27.1a29.39,29.39,0,0,1-11.16,12.64,7.83,7.83,0,0,0-3.45,8.73l20,70.91a7.77,7.77,0,0,1-7.47,9.87h-16a7.76,7.76,0,0,1-7.51-5.8l-18-68.87a7.78,7.78,0,0,0-7.51-5.8h-.49a7.76,7.76,0,0,0-7.76,7.76v64.95a7.77,7.77,0,0,1-7.76,7.76H648.07A7.76,7.76,0,0,1,640.31,228.23Zm32.1-101a7.75,7.75,0,0,0,7.76,7.76h0q14.24,0,20.24-6.06t6-20.73q0-14.13-5.21-20.24t-19.13-6.12h-1.91a7.76,7.76,0,0,0-7.76,7.76Z" transform="translate(-14.59 -14.74)"/><path class="cls-2" d="M791.53,228.23V67.51a7.76,7.76,0,0,1,7.76-7.76H854A11.32,11.32,0,0,1,865.3,71.07h0A11.32,11.32,0,0,1,854,82.39H831.39a7.76,7.76,0,0,0-7.76,7.76v35.08a7.75,7.75,0,0,0,7.76,7.76h13.87a11.32,11.32,0,0,1,11.32,11.32h0a11.32,11.32,0,0,1-11.32,11.32H831.39a7.75,7.75,0,0,0-7.76,7.76V206a7.75,7.75,0,0,0,7.76,7.76h23.33a11.1,11.1,0,0,1,11.11,11.11h0A11.11,11.11,0,0,1,854.72,236H799.29A7.76,7.76,0,0,1,791.53,228.23Z" transform="translate(-14.59 -14.74)"/><path class="cls-2" d="M959.23,238.06q-43.4,0-48.37-46.71a7.77,7.77,0,0,1,6.13-8.46l12.59-2.64a7.75,7.75,0,0,1,9.29,6.69q2.94,26.46,19.4,26.46,7.34,0,10.9-4.46t3.56-12a33.43,33.43,0,0,0-2.66-13.45,36.73,36.73,0,0,0-6.16-10,130.12,130.12,0,0,0-10-9.62l-23.17-20.09q-10.2-8.92-15.2-18.55t-5-24.07q0-20.52,12.06-31.89t33.11-11.59a51.77,51.77,0,0,1,17.11,2.4,35.8,35.8,0,0,1,12.28,6.69,34.79,34.79,0,0,1,8.08,10.47,57,57,0,0,1,4.84,13q.84,3.61,1.43,7.66a7.79,7.79,0,0,1-6.18,8.76L981.45,109a7.76,7.76,0,0,1-9.21-6.75c0-.27-.06-.53-.1-.79a49.87,49.87,0,0,0-1.64-8,20.34,20.34,0,0,0-3-6.53,13,13,0,0,0-5-4,14.25,14.25,0,0,0-7.28-1.17q-7.12.43-10.89,4.73t-3.78,11.54q0,8.51,3.35,14a53.77,53.77,0,0,0,10.47,11.75l23,20a119.29,119.29,0,0,1,10,10.1A86.42,86.42,0,0,1,995.42,165a51.32,51.32,0,0,1,5.9,13.82,61.23,61.23,0,0,1,2,15.94q0,19.24-12.17,31.25T959.23,238.06Z" transform="translate(-14.59 -14.74)"/><path class="cls-2" d="M1069.85,228.23v-137a7.76,7.76,0,0,0-7.76-7.76h-14a7.76,7.76,0,0,1-7.76-7.76V67.51a7.76,7.76,0,0,1,7.76-7.76h74.72a7.76,7.76,0,0,1,7.76,7.76V75.7a7.76,7.76,0,0,1-7.76,7.76h-13.07a7.75,7.75,0,0,0-7.76,7.76v137a7.76,7.76,0,0,1-7.76,7.76h-16.58A7.76,7.76,0,0,1,1069.85,228.23Z" transform="translate(-14.59 -14.74)"/></svg>